<svg width="40" height="38" viewBox="0 0 40 38" fill="none" xmlns="http://www.w3.org/2000/svg">
<path d="M38.9352 3.53142L38.7139 2.60744L36.5666 2.55481L36.5114 0.506844L35.5426 0.29579C33.1924 -0.216164 29.8767 -0.0568685 26.6731 0.721773C24.2868 1.30179 21.0033 2.46211 18.007 4.76126C15.0694 4.83349 10.7097 6.71565 8.38045 8.93724C7.75391 9.5348 7.44784 10.2988 7.49529 11.1469C7.55707 12.2518 8.23221 13.4964 9.50186 14.8459C9.7512 15.111 9.99848 15.3531 10.2258 15.5654C9.45357 17.855 9.17916 20.0308 9.26025 21.9135C5.80222 21.6739 1.9778 22.8688 0.62499 24.3326C0.0303322 24.976 -0.150794 25.7396 0.128215 26.4275C0.653964 27.7236 2.0996 27.9711 3.49779 28.2104C4.93208 28.456 6.55792 28.7342 7.83753 29.9547C9.11715 31.1752 9.40896 32.7257 9.66643 34.0937C9.9173 35.4271 10.1768 36.806 11.5357 37.3074C11.7578 37.3893 11.9876 37.4297 12.2189 37.4297C12.7384 37.4297 13.2655 37.2261 13.7323 36.8336C15.2672 35.5433 16.5201 31.8961 16.2688 28.5978C16.4893 28.6064 16.7136 28.6109 16.9416 28.6109C18.7541 28.6108 20.7927 28.331 22.9252 27.6767C23.1565 27.9033 23.4237 28.1525 23.7172 28.4036C25.1321 29.6145 26.4371 30.2585 27.5956 30.3174C27.6554 30.3204 27.7148 30.3219 27.7738 30.3219C28.5917 30.3219 29.3281 30.0304 29.9125 29.473C32.265 27.2294 34.2546 23.0108 34.2929 20.2089C36.6776 17.364 37.8836 14.2539 38.4884 11.9905C39.3049 8.93519 39.4719 5.77289 38.9352 3.53142ZM10.051 11.0171C10.0422 10.8622 10.0788 10.7696 10.1902 10.6633C11.2638 9.63948 12.9456 8.66733 14.6171 8.01487C13.1829 9.67713 12.0809 11.3797 11.2597 13.0574C10.6087 12.3344 10.0815 11.5624 10.051 11.0171ZM28.1027 27.7472C27.9914 27.8534 27.8942 27.8878 27.7326 27.8801C27.1535 27.8512 26.3241 27.3291 25.5525 26.6915C27.339 25.8964 29.1524 24.8253 30.9211 23.4264C30.2372 25.0528 29.1985 26.7021 28.1027 27.7472ZM36.0084 11.3877C35.7718 12.2732 35.4325 13.3035 34.9487 14.393C32.2102 14.0713 29.661 12.8895 27.6958 11.0151C26.3031 9.68678 25.2882 8.11517 24.6794 6.34391L22.2474 7.10428C22.9825 9.24289 24.2067 11.1394 25.8861 12.7411C28.041 14.7963 30.7784 16.1605 33.7402 16.6833C33.031 17.8261 32.1442 18.97 31.0359 20.027C28.5528 22.3952 25.6333 24.1854 22.5929 25.2041C19.9613 26.0858 17.2505 26.3779 14.9598 26.0262L13.0479 25.7328L13.5145 27.5253C13.866 28.8757 13.8032 30.6238 13.3423 32.321C13.0447 33.4171 12.6708 34.1664 12.3803 34.5991C12.3074 34.3115 12.2408 33.9568 12.1854 33.6624C11.8938 32.1128 11.4944 29.9904 9.64719 28.2286C7.79998 26.4669 5.57465 26.0859 3.94988 25.8078C3.64113 25.755 3.26937 25.6913 2.96767 25.6219C3.42145 25.3449 4.20704 24.9882 5.35627 24.7044C7.13587 24.2648 8.96867 24.2049 10.3846 24.5403L12.2641 24.9852L11.9565 23.1618C11.5879 20.9771 11.8941 18.3917 12.8185 15.8818C13.8865 12.9821 15.7635 10.1976 18.2467 7.8294C21.2015 5.01121 24.8036 3.69488 27.3052 3.08672C30.0228 2.42614 32.3966 2.34858 34.0055 2.52264L34.0705 4.93489L36.5998 4.99688C36.7824 6.53201 36.701 8.79593 36.0084 11.3877Z" fill="#AF2EFF"/>
</svg>
